<?xml version="1.0" standalone="no"?>
<!DOCTYPE svg PUBLIC "-//W3C//DTD SVG 20010904//EN"
 "http://www.w3.org/TR/2001/REC-SVG-20010904/DTD/svg10.dtd">
<svg version="1.0" xmlns="http://www.w3.org/2000/svg"
 width="700.000000pt" height="700.000000pt" viewBox="0 0 700.000000 700.000000"
 preserveAspectRatio="xMidYMid meet">
<metadata>
Created by potrace 1.14, written by Peter Selinger 2001-2017
</metadata>
<g transform="translate(0.000000,700.000000) scale(0.100000,-0.100000)"
fill="#000000" stroke="none">
<path d="M3058 6566 c-1 -2 -43 -6 -93 -9 -87 -6 -116 -10 -180 -24 -16 -4
-36 -8 -42 -9 -49 -9 -165 -53 -259 -99 -256 -124 -466 -331 -594 -584 -53
-107 -101 -251 -125 -381 -13 -71 -13 -325 0 -406 31 -189 86 -337 187 -502
22 -37 43 -69 47 -72 3 -3 22 -25 41 -50 187 -243 524 -439 815 -475 28 -4 61
-8 75 -11 30 -5 237 -6 265 0 11 2 42 7 68 10 140 21 307 76 422 140 67 38
148 90 165 108 8 8 23 19 32 24 20 11 130 116 172 165 65 73 140 189 186 284
68 140 95 231 126 420 21 122 1 362 -42 515 -18 67 -73 209 -88 230 -6 8 -22
37 -36 63 -37 72 -140 205 -217 280 -130 128 -290 231 -462 297 -90 35 -250
70 -346 76 -49 3 -95 7 -102 9 -6 2 -13 2 -15 1z"/>
<path d="M5478 4959 c-47 -4 -111 -12 -142 -19 -31 -6 -58 -11 -61 -11 -11 1
-139 -51 -188 -75 -197 -99 -375 -280 -462 -469 -49 -106 -66 -155 -86 -250
-22 -104 -15 -360 10 -428 5 -12 9 -26 10 -32 21 -127 139 -331 263 -454 69
-70 238 -191 265 -191 7 0 13 -3 14 -7 1 -5 2 -358 3 -786 l1 -778 219 -219
219 -220 364 366 365 365 -216 215 c-119 118 -216 218 -216 222 0 4 97 104
215 222 l215 215 -180 180 -181 181 53 24 c52 23 165 89 195 113 62 51 153
141 187 187 214 281 272 618 166 950 -120 376 -470 657 -865 695 -38 4 -72 8
-75 9 -3 1 -44 -1 -92 -5z m184 -465 c86 -44 139 -108 161 -195 35 -135 -35
-276 -164 -334 -54 -24 -71 -27 -133 -23 -83 6 -137 30 -192 85 -147 150 -88
404 110 475 61 22 167 19 218 -8z"/>
<path d="M2479 3496 c-2 -2 -31 -7 -64 -10 -323 -33 -678 -189 -933 -412 -224
-195 -403 -456 -500 -724 -92 -258 -105 -357 -106 -844 l-1 -340 1875 0 c1031
-1 1884 0 1896 2 l21 4 -1 802 0 803 -39 29 c-121 90 -327 348 -388 487 -27
61 -27 61 -180 113 -90 31 -199 58 -324 80 -42 8 -1248 17 -1256 10z"/>
</g>
</svg>
