<?xml version="1.0" encoding="utf-8"?>
<!-- Generator: Adobe Illustrator 28.1.0, SVG Export Plug-In . SVG Version: 6.00 Build 0)  -->
<svg version="1.1" xmlns="http://www.w3.org/2000/svg" xmlns:xlink="http://www.w3.org/1999/xlink" x="0px" y="0px"
	 viewBox="0 0 216 216" style="enable-background:new 0 0 216 216;" xml:space="preserve">
<style type="text/css">
	.st0{fill:none;}
	.st1{fill-rule:evenodd;clip-rule:evenodd;fill:#FFFFFF;}
	.st2{fill-rule:evenodd;clip-rule:evenodd;fill:#DAD9D9;}
	.st3{fill:#FFFFFF;}
</style>
<g id="Layer_1">
</g>
<g id="Isolation_Mode">
	<rect class="st0" width="216" height="216"/>
	<g>
		<g>
			<g>
				<g>
					<path d="M129.2,33.23H77.78c-27.26,0-49.36,22.43-49.36,50.09v52.18c0,27.66,22.1,50.09,49.36,50.09h51.42
						c27.26,0,49.36-22.43,49.36-50.09V83.32C178.56,55.65,156.46,33.23,129.2,33.23z"/>
				</g>
				<path class="st1" d="M155.56,102.99c0,9.8-6.03,18.13-14.42,21.17l5.08,8.41l-7.51,9.24l7.51,9.03l-12.12,16.26l-8.54-9.11
					v-18.41v-16.04c-7.59-3.45-12.91-11.35-12.91-20.55c0-12.37,9.61-22.4,21.45-22.4C145.95,80.6,155.56,90.62,155.56,102.99z
					 M134.1,106.43c2.86,0,5.18-2.42,5.18-5.41c0-2.99-2.32-5.41-5.18-5.41s-5.18,2.42-5.18,5.41
					C128.92,104.01,131.24,106.43,134.1,106.43z"/>
				<path class="st2" d="M155.62,103.06c0,9.68-5.87,17.93-14.09,21.09l4.68,8.42l-6.92,9.24l6.92,9.03l-12.11,16.39v-18.41v-23.3
					v-19.1c2.86,0,5.18-2.42,5.18-5.41c0-2.99-2.32-5.41-5.18-5.41V80.6C145.99,80.6,155.62,90.65,155.62,103.06z"/>
				<path class="st1" d="M118.53,127.62c-6.93-5.69-11.58-14.43-12.22-24.36H69.17c-7.79,0-14.1,6.41-14.1,14.31v17.89
					c0,3.95,3.16,7.16,7.05,7.16h49.36c3.89,0,7.05-3.2,7.05-7.16V127.62z"/>
				<path class="st3" d="M85.07,98.97c-1.72-0.33-3.43-0.64-5.05-1.32c-6.15-2.58-9.73-7.34-10.89-14.06
					c-0.8-4.6-0.42-9.15,1.44-13.45c2.64-6.11,7.39-9.43,13.61-10.55c3.72-0.67,7.43-0.52,11.02,0.82
					c5.4,2.01,9.01,5.87,10.69,11.55c1.69,5.72,1.44,11.45-1.11,16.86c-2.64,5.66-7.26,8.69-13.1,9.88c-0.49,0.1-0.97,0.2-1.46,0.29
					C88.51,98.97,86.79,98.97,85.07,98.97z"/>
			</g>
		</g>
	</g>
</g>
</svg>
