<?xml version="1.0" encoding="UTF-8"?>
<svg width="3600" height="600" version="1.1" viewBox="0 0 952.5 158.75" xmlns="http://www.w3.org/2000/svg">
<path d="m222.67 45.37q10.588 0 17.087 8.2352 6.5545 8.2352 6.5545 24.145 0 10.644-3.0812 17.927-3.0812 7.2268-8.5153 10.924-5.4341 3.6974-12.493 3.6974-4.5377 0-7.787-1.1204-3.2492-1.1764-5.5461-2.9691-2.2969-1.8487-3.9775-3.9215h-0.89634q0.44817 2.2408 0.67226 4.5938 0.22408 2.3529 0.22408 4.5938v25.266h-17.087v-90.195h13.893l2.4089 8.1231h0.7843q1.6806-2.521 4.0896-4.6498 2.4089-2.1288 5.7702-3.3613 3.4173-1.2885 7.899-1.2885zm-5.4901 13.669q-4.4817 0-7.1147 1.8487t-3.8655 5.5461q-1.1764 3.6974-1.2885 9.3556v1.8487q0 6.0503 1.1204 10.252 1.1765 4.2016 3.8655 6.3864 2.745 2.1848 7.5069 2.1848 3.9215 0 6.4425-2.1848 2.521-2.1848 3.7534-6.3864 1.2885-4.2576 1.2885-10.364 0-9.1875-2.8571-13.837-2.8571-4.6498-8.8514-4.6498zm68.906-13.781q12.605 0 19.327 5.4901 6.7226 5.4901 6.7226 16.694v41.736h-11.933l-3.3053-8.5153h-0.44817q-2.689 3.3613-5.4901 5.4901-2.8011 2.1288-6.4425 3.1372-3.6414 1.0084-8.8514 1.0084-5.5461 0-9.9718-2.1288-4.3697-2.1288-6.8906-6.4985-2.521-4.4257-2.521-11.204 0-9.9718 7.0027-14.678 7.0027-4.7618 21.008-5.266l10.868-0.33613v-2.745q0-4.9299-2.577-7.2268t-7.1708-2.2969q-4.5377 0-8.9074 1.2885-4.3697 1.2885-8.7394 3.2492l-5.6582-11.54q4.9859-2.633 11.148-4.1456 6.2184-1.5126 12.829-1.5126zm9.0755 34.901-6.6105 0.22408q-8.2912 0.22409-11.54 2.9691-3.1932 2.7451-3.1932 7.2268 0 3.9215 2.2969 5.6022 2.2969 1.6246 5.9943 1.6246 5.4901 0 9.2436-3.2492 3.8095-3.2492 3.8095-9.2435zm78.262 10.42q0 6.3864-3.0252 10.812-2.9691 4.3697-8.9074 6.6666-5.9383 2.2409-14.79 2.2409-6.5545 0-11.26-0.84032-4.6498-0.84033-9.4116-2.8011v-14.117q5.098 2.2969 10.924 3.8095 5.8822 1.4566 10.308 1.4566 4.9859 0 7.1147-1.4566 2.1848-1.5126 2.1848-3.9215 0-1.5686-0.89634-2.8011-0.84032-1.2885-3.6974-2.8571-2.8571-1.6246-8.9634-4.2016-5.8822-2.4649-9.6917-4.9859-3.7534-2.521-5.6022-5.9383-1.7927-3.4733-1.7927-8.7954 0-8.6833 6.7226-13.053 6.7786-4.4257 18.095-4.4257 5.8262 0 11.092 1.1764 5.322 1.1764 10.924 3.7534l-5.154 12.325q-4.6498-2.0168-8.7954-3.3053-4.0896-1.2885-8.3472-1.2885-3.7534 0-5.6582 1.0084t-1.9047 3.0812q0 1.5126 0.95237 2.689 1.0084 1.1764 3.8095 2.633 2.8571 1.4005 8.3472 3.6414 5.322 2.1848 9.2435 4.5938 3.9215 2.3529 6.0503 5.8823 2.1288 3.4733 2.1288 9.0195zm57.03 0q0 6.3864-3.0252 10.812-2.9691 4.3697-8.9074 6.6666-5.9383 2.2409-14.79 2.2409-6.5545 0-11.26-0.84032-4.6498-0.84033-9.4116-2.8011v-14.117q5.098 2.2969 10.924 3.8095 5.8823 1.4566 10.308 1.4566 4.9859 0 7.1147-1.4566 2.1848-1.5126 2.1848-3.9215 0-1.5686-0.89634-2.8011-0.84033-1.2885-3.6974-2.8571-2.8571-1.6246-8.9634-4.2016-5.8823-2.4649-9.6917-4.9859-3.7534-2.521-5.6021-5.9383-1.7927-3.4733-1.7927-8.7954 0-8.6833 6.7226-13.053 6.7786-4.4257 18.095-4.4257 5.8262 0 11.092 1.1764 5.322 1.1764 10.924 3.7534l-5.154 12.325q-4.6498-2.0168-8.7954-3.3053-4.0896-1.2885-8.3472-1.2885-3.7534 0-5.6582 1.0084t-1.9047 3.0812q0 1.5126 0.95236 2.689 1.0084 1.1764 3.8095 2.633 2.8571 1.4005 8.3472 3.6414 5.322 2.1848 9.2435 4.5938 3.9215 2.3529 6.0503 5.8823 2.1288 3.4733 2.1288 9.0195zm30.42-68.57v38.991q0 3.5294-0.2801 7.0587-0.28011 3.5294-0.61624 7.0587h0.22409q1.7367-2.4649 3.5294-4.8739 1.8487-2.4089 3.9215-4.6498l17.535-19.047h19.271l-24.874 27.17 26.386 35.462h-19.72l-18.039-25.378-7.3388 5.8823v19.495h-17.087v-87.169zm79.887 23.361q8.6833 0 14.958 3.3613 6.2744 3.3053 9.6917 9.6357t3.4173 15.462v8.2912h-40.392q0.2801 7.2268 4.3136 11.372 4.0896 4.0896 11.316 4.0896 5.9943 0 10.98-1.2325t10.252-3.6974v13.221q-4.6498 2.2969-9.7477 3.3613-5.0419 1.0644-12.269 1.0644-9.4116 0-16.694-3.4733-7.2268-3.4734-11.372-10.588-4.0896-7.1147-4.0896-17.927 0-10.98 3.6974-18.263 3.7534-7.3388 10.42-10.98 6.6666-3.6974 15.518-3.6974zm0.11205 12.157q-4.9859 0-8.2912 3.1932-3.2492 3.1932-3.7534 10.028h23.977q-0.056-3.8095-1.4005-6.7786-1.2885-2.9691-3.9215-4.7058-2.577-1.7367-6.6105-1.7367zm32.885-10.98h18.711l11.821 35.238q0.56022 1.6806 0.95237 3.4173t0.67225 3.5854q0.28011 1.8487 0.44818 3.8655h0.33612q0.33613-3.0252 0.89635-5.6582 0.61623-2.633 1.5126-5.21l11.596-35.238h18.319l-26.498 70.643q-2.4089 6.4985-6.2744 10.812-3.8655 4.3697-8.9074 6.5545-4.9859 2.1848-10.98 2.1848-2.9131 0-5.0419-0.33613-2.1288-0.28011-3.6414-0.61624v-13.557q1.1765 0.28011 2.9691 0.5042 1.7927 0.22408 3.7534 0.22408 3.5854 0 6.1624-1.5126 2.577-1.5126 4.3136-4.0896 1.7367-2.521 2.745-5.5461l1.0084-3.0812zm117.93 44.033q0 6.3864-3.0252 10.812-2.9691 4.3697-8.9074 6.6666-5.9383 2.2409-14.79 2.2409-6.5545 0-11.26-0.84032-4.6498-0.84033-9.4116-2.8011v-14.117q5.098 2.2969 10.924 3.8095 5.8823 1.4566 10.308 1.4566 4.9859 0 7.1147-1.4566 2.1848-1.5126 2.1848-3.9215 0-1.5686-0.89634-2.8011-0.84032-1.2885-3.6974-2.8571-2.8571-1.6246-8.9634-4.2016-5.8823-2.4649-9.6917-4.9859-3.7534-2.521-5.6022-5.9383-1.7927-3.4733-1.7927-8.7954 0-8.6833 6.7226-13.053 6.7786-4.4257 18.095-4.4257 5.8262 0 11.092 1.1764 5.322 1.1764 10.924 3.7534l-5.154 12.325q-4.6498-2.0168-8.7954-3.3053-4.0896-1.2885-8.3472-1.2885-3.7534 0-5.6582 1.0084t-1.9047 3.0812q0 1.5126 0.95237 2.689 1.0084 1.1764 3.8095 2.633 2.8571 1.4005 8.3472 3.6414 5.322 2.1848 9.2436 4.5938 3.9215 2.3529 6.0503 5.8823 2.1288 3.4733 2.1288 9.0195zm10.924 10.588q0-5.266 2.8571-7.3948 2.9131-2.1288 7.0027-2.1288 3.9775 0 6.8346 2.1288 2.9131 2.1288 2.9131 7.3948 0 5.0419-2.9131 7.2828-2.8571 2.2409-6.8346 2.2409-4.0896 0-7.0027-2.2409-2.8571-2.2409-2.8571-7.2828zm54.957 9.1315q-10.476 0-17.087-8.1792-6.5545-8.2352-6.5545-24.145 0-16.078 6.6666-24.313 6.6666-8.2912 17.423-8.2912 4.4817 0 7.899 1.2325t5.8823 3.3053q2.521 2.0728 4.2576 4.6498h0.56021q-0.33612-1.7927-0.84032-5.266-0.44817-3.5294-0.44817-7.2268v-20.056h17.143v87.169h-13.109l-3.3053-8.1231h-0.72828q-1.6246 2.577-4.0896 4.7058-2.4089 2.0728-5.7702 3.3053-3.3613 1.2325-7.899 1.2325zm5.9943-13.613q7.0027 0 9.8598-4.1456 2.9131-4.2016 3.0812-12.605v-1.8487q0-9.1315-2.8011-13.949-2.8011-4.8739-10.42-4.8739-5.6582 0-8.8514 4.8739-3.1932 4.8739-3.1932 14.061 0 9.1875 3.1932 13.837 3.2492 4.6498 9.1315 4.6498zm72.604-51.316q8.6833 0 14.958 3.3613 6.2744 3.3053 9.6917 9.6357t3.4173 15.462v8.2912h-40.391q0.28011 7.2268 4.3137 11.372 4.0896 4.0896 11.316 4.0896 5.9943 0 10.98-1.2325t10.252-3.6974v13.221q-4.6498 2.2969-9.7477 3.3613-5.0419 1.0644-12.269 1.0644-9.4116 0-16.694-3.4733-7.2268-3.4734-11.372-10.588-4.0896-7.1147-4.0896-17.927 0-10.98 3.6974-18.263 3.7534-7.3388 10.42-10.98 6.6666-3.6974 15.518-3.6974zm0.11204 12.157q-4.9859 0-8.2912 3.1932-3.2492 3.1932-3.7534 10.028h23.977q-0.056-3.8095-1.4005-6.7786-1.2885-2.9691-3.9215-4.7058-2.577-1.7367-6.6105-1.7367zm56.75 51.652-23.865-62.632h17.871l12.101 35.686q1.0084 3.1372 1.5686 6.6105 0.61624 3.4733 0.84033 6.2184h0.44817q0.16806-2.9691 0.7843-6.3304 0.67226-3.3613 1.7367-6.4985l12.045-35.686h17.871l-23.865 62.632z" fill="#fff" stroke-width=".59756" aria-label="passkeys.dev"/>
<g transform="matrix(.90538 0 0 .90538 -15.614 -19.683)">
<path class="st1" d="m129.2 33.23h-51.42c-27.26 0-49.36 22.43-49.36 50.09v52.18c0 27.66 22.1 50.09 49.36 50.09h51.42c27.26 0 49.36-22.43 49.36-50.09v-52.18c0-27.67-22.1-50.09-49.36-50.09z" fill="#fff"/>
<path class="st2" d="m155.56 102.99c0 9.8-6.03 18.13-14.42 21.17l5.08 8.41-7.51 9.24 7.51 9.03-12.12 16.26-8.54-9.11v-34.45c-7.59-3.45-12.91-11.35-12.91-20.55 0-12.37 9.61-22.4 21.45-22.4 11.85 0.01 21.46 10.03 21.46 22.4zm-21.46 3.44c2.86 0 5.18-2.42 5.18-5.41s-2.32-5.41-5.18-5.41-5.18 2.42-5.18 5.41 2.32 5.41 5.18 5.41z" clip-rule="evenodd" fill="#353535" fill-rule="evenodd"/>
<path class="st3" d="m155.62 103.06c0 9.68-5.87 17.93-14.09 21.09l4.68 8.42-6.92 9.24 6.92 9.03-12.11 16.39v-60.81c2.86 0 5.18-2.42 5.18-5.41s-2.32-5.41-5.18-5.41v-15c11.89 0 21.52 10.05 21.52 22.46z" clip-rule="evenodd" fill-rule="evenodd"/>
<path class="st3" d="m118.53 127.62c-6.93-5.69-11.58-14.43-12.22-24.36h-37.14c-7.79 0-14.1 6.41-14.1 14.31v17.89c0 3.95 3.16 7.16 7.05 7.16h49.36c3.89 0 7.05-3.2 7.05-7.16z" clip-rule="evenodd" fill-rule="evenodd"/>
<path class="st4" d="m85.07 98.97c-1.72-0.33-3.43-0.64-5.05-1.32-6.15-2.58-9.73-7.34-10.89-14.06-0.8-4.6-0.42-9.15 1.44-13.45 2.64-6.11 7.39-9.43 13.61-10.55 3.72-0.67 7.43-0.52 11.02 0.82 5.4 2.01 9.01 5.87 10.69 11.55 1.69 5.72 1.44 11.45-1.11 16.86-2.64 5.66-7.26 8.69-13.1 9.88-0.49 0.1-0.97 0.2-1.46 0.29-1.71-0.02-3.43-0.02-5.15-0.02z" fill="#141313"/>
</g>
</svg>
