<?xml version="1.0" encoding="UTF-8" standalone="no"?>
<!-- Created with Inkscape (http://www.inkscape.org/) -->

<svg
   width="512"
   height="512"
   viewBox="0 0 135.46666 135.46667"
   version="1.1"
   id="svg1"
   xmlns="http://www.w3.org/2000/svg"
   xmlns:svg="http://www.w3.org/2000/svg">
  <defs
     id="defs1" />
  <g
     id="layer1">
    <g
       transform="matrix(0.87804943,0,0,0.87804943,-217.61517,-58.068321)"
       id="g6">
      <g
         transform="translate(221.49,33.864)"
         fill="#ffbf3b"
         id="g2">
        <path
           class="st1"
           d="M 129.2,33.23 H 77.78 c -27.26,0 -49.36,22.43 -49.36,50.09 v 52.18 c 0,27.66 22.1,50.09 49.36,50.09 h 51.42 c 27.26,0 49.36,-22.43 49.36,-50.09 V 83.32 c 0,-27.67 -22.1,-50.09 -49.36,-50.09 z"
           fill="#ffbf3b"
           id="path2" />
      </g>
      <path
         class="st2"
         d="m 377.05,136.85 c 0,9.8 -6.03,18.13 -14.42,21.17 l 5.08,8.41 -7.51,9.24 7.51,9.03 -12.12,16.26 -8.54,-9.11 V 157.4 c -7.59,-3.45 -12.91,-11.35 -12.91,-20.55 0,-12.37 9.61,-22.4 21.45,-22.4 11.85,0.01 21.46,10.03 21.46,22.4 z m -21.46,3.44 c 2.86,0 5.18,-2.42 5.18,-5.41 0,-2.99 -2.32,-5.41 -5.18,-5.41 -2.86,0 -5.18,2.42 -5.18,5.41 0,2.99 2.32,5.41 5.18,5.41 z"
         clip-rule="evenodd"
         fill="#353535"
         fill-rule="evenodd"
         id="path3" />
      <path
         class="st3"
         d="m 377.11,136.92 c 0,9.68 -5.87,17.93 -14.09,21.09 l 4.68,8.42 -6.92,9.24 6.92,9.03 -12.11,16.39 v -60.81 c 2.86,0 5.18,-2.42 5.18,-5.41 0,-2.99 -2.32,-5.41 -5.18,-5.41 v -15 c 11.89,0 21.52,10.05 21.52,22.46 z"
         clip-rule="evenodd"
         fill-rule="evenodd"
         id="path4" />
      <path
         class="st3"
         d="m 340.02,161.48 c -6.93,-5.69 -11.58,-14.43 -12.22,-24.36 h -37.14 c -7.79,0 -14.1,6.41 -14.1,14.31 v 17.89 c 0,3.95 3.16,7.16 7.05,7.16 h 49.36 c 3.89,0 7.05,-3.2 7.05,-7.16 z"
         clip-rule="evenodd"
         fill-rule="evenodd"
         id="path5" />
      <path
         class="st4"
         d="m 306.56,132.83 c -1.72,-0.33 -3.43,-0.64 -5.05,-1.32 -6.15,-2.58 -9.73,-7.34 -10.89,-14.06 -0.8,-4.6 -0.42,-9.15 1.44,-13.45 2.64,-6.11 7.39,-9.43 13.61,-10.55 3.72,-0.67 7.43,-0.52 11.02,0.82 5.4,2.01 9.01,5.87 10.69,11.55 1.69,5.72 1.44,11.45 -1.11,16.86 -2.64,5.66 -7.26,8.69 -13.1,9.88 -0.49,0.1 -0.97,0.2 -1.46,0.29 -1.71,-0.02 -3.43,-0.02 -5.15,-0.02 z"
         fill="#141313"
         id="path6" />
    </g>
  </g>
</svg>
